<svg width="27" height="26" viewBox="0 0 27 26" fill="none" xmlns="http://www.w3.org/2000/svg">
<path d="M13.7803 1.625C7.50777 1.625 2.40527 6.3375 2.40527 12.1306C2.41108 13.8893 2.88683 15.6144 3.78327 17.1275L2.42802 23.2294C2.39063 23.3995 2.4011 23.5766 2.45827 23.7411C2.51545 23.9056 2.61709 24.0511 2.75191 24.1614C2.88674 24.2716 3.04948 24.3423 3.22207 24.3657C3.39466 24.3891 3.57036 24.3642 3.72965 24.2937L9.34727 21.7977C10.7589 22.354 12.263 22.6388 13.7803 22.6371C20.0528 22.6371 25.1553 17.9246 25.1553 12.1314C25.1553 6.33831 20.0528 1.625 13.7803 1.625ZM17.443 14.885H10.1175C9.86756 14.885 9.62783 14.7857 9.45108 14.6089C9.27432 14.4322 9.17502 14.1925 9.17502 13.9425C9.17502 13.6925 9.27432 13.4528 9.45108 13.2761C9.62783 13.0993 9.86756 13 10.1175 13H17.443C17.693 13 17.9327 13.0993 18.1095 13.2761C18.2862 13.4528 18.3855 13.6925 18.3855 13.9425C18.3855 14.1925 18.2862 14.4322 18.1095 14.6089C17.9327 14.7857 17.693 14.885 17.443 14.885ZM17.443 11.1166H10.1175C9.87454 11.1065 9.64486 11.0029 9.47651 10.8274C9.30815 10.6519 9.21415 10.4181 9.21415 10.1749C9.21415 9.93174 9.30815 9.69797 9.47651 9.52247C9.64486 9.34697 9.87454 9.24335 10.1175 9.23325H17.443C17.57 9.22798 17.6967 9.24843 17.8155 9.29337C17.9344 9.33832 18.0429 9.40683 18.1346 9.4948C18.2263 9.58276 18.2993 9.68836 18.3491 9.80524C18.399 9.92212 18.4247 10.0479 18.4247 10.1749C18.4247 10.302 18.399 10.4278 18.3491 10.5446C18.2993 10.6615 18.2263 10.7671 18.1346 10.8551C18.0429 10.943 17.9344 11.0116 17.8155 11.0565C17.6967 11.1014 17.57 11.1219 17.443 11.1166Z" fill="white"/>
</svg>
