<svg width="27" height="26" viewBox="0 0 27 26" fill="none" xmlns="http://www.w3.org/2000/svg">
<path d="M13.7798 1.625C7.50729 1.625 2.40479 6.3375 2.40479 12.1306C2.41059 13.8893 2.88634 15.6144 3.78279 17.1275L2.42754 23.2294C2.39014 23.3995 2.40061 23.5766 2.45778 23.7411C2.51496 23.9056 2.6166 24.0511 2.75143 24.1614C2.88625 24.2716 3.04899 24.3423 3.22158 24.3657C3.39418 24.3891 3.56987 24.3642 3.72916 24.2937L9.34678 21.7977C10.7585 22.354 12.2625 22.6388 13.7798 22.6371C20.0523 22.6371 25.1548 17.9246 25.1548 12.1314C25.1548 6.33831 20.0523 1.625 13.7798 1.625ZM17.4425 14.885H10.117C9.86707 14.885 9.62734 14.7857 9.45059 14.6089C9.27383 14.4322 9.17453 14.1925 9.17453 13.9425C9.17453 13.6925 9.27383 13.4528 9.45059 13.2761C9.62734 13.0993 9.86707 13 10.117 13H17.4425C17.6925 13 17.9322 13.0993 18.109 13.2761C18.2857 13.4528 18.385 13.6925 18.385 13.9425C18.385 14.1925 18.2857 14.4322 18.109 14.6089C17.9322 14.7857 17.6925 14.885 17.4425 14.885ZM17.4425 11.1166H10.117C9.87405 11.1065 9.64438 11.0029 9.47602 10.8274C9.30767 10.6519 9.21366 10.4181 9.21366 10.1749C9.21366 9.93174 9.30767 9.69797 9.47602 9.52247C9.64438 9.34697 9.87405 9.24335 10.117 9.23325H17.4425C17.5695 9.22798 17.6962 9.24843 17.8151 9.29337C17.9339 9.33832 18.0424 9.40683 18.1341 9.4948C18.2258 9.58276 18.2988 9.68836 18.3486 9.80524C18.3985 9.92212 18.4242 10.0479 18.4242 10.1749C18.4242 10.302 18.3985 10.4278 18.3486 10.5446C18.2988 10.6615 18.2258 10.7671 18.1341 10.8551C18.0424 10.943 17.9339 11.0116 17.8151 11.0565C17.6962 11.1014 17.5695 11.1219 17.4425 11.1166Z" fill="white"/>
</svg>
