<svg width="27" height="27" viewBox="0 0 27 27" fill="none" xmlns="http://www.w3.org/2000/svg">
<path d="M13.7798 1.96484C7.50729 1.96484 2.40479 6.67734 2.40479 12.4705C2.41059 14.2291 2.88634 15.9543 3.78279 17.4673L2.42754 23.5692C2.39014 23.7393 2.40061 23.9165 2.45778 24.081C2.51496 24.2455 2.6166 24.3909 2.75143 24.5012C2.88625 24.6115 3.04899 24.6822 3.22158 24.7056C3.39418 24.7289 3.56987 24.704 3.72916 24.6336L9.34679 22.1376C10.7585 22.6939 12.2625 22.9786 13.7798 22.9769C20.0523 22.9769 25.1548 18.2644 25.1548 12.4713C25.1548 6.67816 20.0523 1.96484 13.7798 1.96484ZM17.4425 15.2248H10.117C9.86707 15.2248 9.62734 15.1255 9.45059 14.9488C9.27383 14.772 9.17453 14.5323 9.17453 14.2823C9.17453 14.0324 9.27383 13.7926 9.45059 13.6159C9.62734 13.4391 9.86707 13.3398 10.117 13.3398H17.4425C17.6925 13.3398 17.9322 13.4391 18.109 13.6159C18.2857 13.7926 18.385 14.0324 18.385 14.2823C18.385 14.5323 18.2857 14.772 18.109 14.9488C17.9322 15.1255 17.6925 15.2248 17.4425 15.2248ZM17.4425 11.4565H10.117C9.87405 11.4464 9.64438 11.3427 9.47602 11.1672C9.30766 10.9918 9.21366 10.758 9.21366 10.5148C9.21366 10.2716 9.30766 10.0378 9.47602 9.86231C9.64438 9.68682 9.87405 9.58319 10.117 9.57309H17.4425C17.5695 9.56782 17.6962 9.58827 17.8151 9.63322C17.9339 9.67816 18.0424 9.74668 18.1341 9.83464C18.2258 9.9226 18.2988 10.0282 18.3486 10.1451C18.3985 10.262 18.4242 10.3877 18.4242 10.5148C18.4242 10.6418 18.3985 10.7676 18.3486 10.8845C18.2988 11.0014 18.2258 11.107 18.1341 11.1949C18.0424 11.2829 17.9339 11.3514 17.8151 11.3963C17.6962 11.4413 17.5695 11.4617 17.4425 11.4565Z" fill="white"/>
</svg>
