<svg width="27" height="27" viewBox="0 0 27 27" fill="none" xmlns="http://www.w3.org/2000/svg">
<path d="M13.7803 2.18506C7.50777 2.18506 2.40527 6.89756 2.40527 12.6907C2.41108 14.4494 2.88683 16.1745 3.78327 17.6876L2.42802 23.7894C2.39063 23.9595 2.4011 24.1367 2.45827 24.3012C2.51545 24.4657 2.61709 24.6112 2.75191 24.7214C2.88674 24.8317 3.04948 24.9024 3.22207 24.9258C3.39466 24.9491 3.57036 24.9242 3.72965 24.8538L9.34727 22.3578C10.7589 22.9141 12.263 23.1989 13.7803 23.1971C20.0528 23.1971 25.1553 18.4846 25.1553 12.6915C25.1553 6.89837 20.0528 2.18506 13.7803 2.18506ZM17.443 15.4451H10.1175C9.86756 15.4451 9.62783 15.3458 9.45108 15.169C9.27432 14.9923 9.17502 14.7525 9.17502 14.5026C9.17502 14.2526 9.27432 14.0129 9.45108 13.8361C9.62783 13.6594 9.86756 13.5601 10.1175 13.5601H17.443C17.693 13.5601 17.9327 13.6594 18.1095 13.8361C18.2862 14.0129 18.3855 14.2526 18.3855 14.5026C18.3855 14.7525 18.2862 14.9923 18.1095 15.169C17.9327 15.3458 17.693 15.4451 17.443 15.4451ZM17.443 11.6767H10.1175C9.87454 11.6666 9.64486 11.563 9.47651 11.3875C9.30815 11.212 9.21415 10.9782 9.21415 10.735C9.21415 10.4918 9.30815 10.258 9.47651 10.0825C9.64486 9.90703 9.87454 9.8034 10.1175 9.79331H17.443C17.57 9.78803 17.6967 9.80848 17.8155 9.85343C17.9344 9.89838 18.0429 9.96689 18.1346 10.0549C18.2263 10.1428 18.2993 10.2484 18.3491 10.3653C18.399 10.4822 18.4247 10.6079 18.4247 10.735C18.4247 10.8621 18.399 10.9878 18.3491 11.1047C18.2993 11.2216 18.2263 11.3272 18.1346 11.4151C18.0429 11.5031 17.9344 11.5716 17.8155 11.6166C17.6967 11.6615 17.57 11.682 17.443 11.6767Z" fill="white"/>
</svg>
