<svg width="29" height="28" viewBox="0 0 29 28" fill="none" xmlns="http://www.w3.org/2000/svg">
<path d="M25.8614 0.801602C25.8614 0.471959 25.6141 0.252197 25.2843 0.252197H21.1618C21.1618 1.13125 21.1618 2.33994 21.1618 2.50476C21.1618 2.91681 20.832 3.21899 20.4472 3.3014C20.035 3.38381 19.6502 3.05416 19.5678 2.66958C19.5678 2.58717 19.5678 2.58717 19.5678 2.50476C19.5678 2.25753 19.5678 1.21366 19.5678 0.252197H9.45398C9.45398 1.13125 9.45398 2.25753 9.45398 2.50476C9.45398 2.91681 9.12419 3.3014 8.73942 3.3014C8.32718 3.3014 7.94241 3.05416 7.85996 2.66958C7.85996 2.58717 7.85996 2.58717 7.85996 2.50476C7.85996 2.33994 7.85996 1.13125 7.85996 0.252197H3.7375C3.4077 0.252197 3.18783 0.49943 3.18783 0.801602L0.714355 27.0632C0.714355 27.3928 0.961703 27.64 1.2915 27.64H27.7577C28.0875 27.64 28.3349 27.3928 28.3349 27.0632L25.8614 0.801602Z" fill="#99907C"/>
</svg>
