<svg width="29" height="29" viewBox="0 0 29 29" fill="none" xmlns="http://www.w3.org/2000/svg">
<path d="M25.8619 1.48153C25.8619 1.15189 25.6145 0.932129 25.2847 0.932129H21.1623C21.1623 1.81118 21.1623 3.01987 21.1623 3.18469C21.1623 3.59674 20.8325 3.89892 20.4477 3.98133C20.0355 4.06374 19.6507 3.7341 19.5683 3.34951C19.5683 3.2671 19.5683 3.2671 19.5683 3.18469C19.5683 2.93746 19.5683 1.89359 19.5683 0.932129H9.45447C9.45447 1.81118 9.45447 2.93746 9.45447 3.18469C9.45447 3.59674 9.12467 3.98133 8.73991 3.98133C8.32766 3.98133 7.9429 3.7341 7.86045 3.34951C7.86045 3.2671 7.86045 3.2671 7.86045 3.18469C7.86045 3.01987 7.86045 1.81118 7.86045 0.932129H3.73799C3.40819 0.932129 3.18832 1.17936 3.18832 1.48153L0.714844 27.7431C0.714844 28.0727 0.962192 28.32 1.29199 28.32H27.7582C28.088 28.32 28.3354 28.0727 28.3354 27.7431L25.8619 1.48153Z" fill="#99907C"/>
</svg>
