<svg width="22" height="20" viewBox="0 0 22 20" fill="none" xmlns="http://www.w3.org/2000/svg">
<path fill-rule="evenodd" clip-rule="evenodd" d="M6.41659 2.06741C6.11169 2.06741 5.80198 2.09622 5.49107 2.15385C3.47677 2.53201 1.825 4.28117 1.47448 6.40729C1.31842 7.3497 1.40125 8.30892 1.71096 9.1841C1.71336 9.1913 1.71576 9.1985 1.71816 9.20571C2.80334 12.6968 8.84744 16.9515 10.6745 18.1724C10.8761 18.3093 11.1294 18.3069 11.3299 18.1724C13.1557 16.9515 19.195 12.698 20.2826 9.20571C20.5995 8.30892 20.6811 7.3497 20.5263 6.40729C20.1746 4.28117 18.5228 2.53201 16.5097 2.15385C14.553 1.79249 12.6384 2.59804 11.4956 4.26797C11.2711 4.59571 10.7285 4.59571 10.5052 4.26797C9.54368 2.86336 8.03235 2.06741 6.41659 2.06741ZM11.0022 19.4738C10.6565 19.4738 10.3095 19.3729 10.007 19.1712C7.56299 17.5373 1.75297 13.3319 0.575364 9.57307C0.200834 8.51181 0.1024 7.3497 0.289665 6.21281C0.729018 3.55486 2.73011 1.44914 5.27019 0.974937C7.42614 0.56676 9.56049 1.31949 10.9998 2.95219C12.4403 1.32189 14.5734 0.570362 16.7306 0.974937C19.2707 1.45034 21.2718 3.55486 21.7099 6.21281C21.8984 7.3533 21.7987 8.52021 21.4218 9.58507C20.2574 13.3259 14.4426 17.5361 11.9973 19.1712C11.6948 19.3729 11.3479 19.4738 11.0022 19.4738Z" fill="#99907C"/>
</svg>
