<svg width="22" height="19" viewBox="0 0 22 19" fill="none" xmlns="http://www.w3.org/2000/svg">
<path fill-rule="evenodd" clip-rule="evenodd" d="M11.0022 18.778C10.6565 18.778 10.3095 18.6771 10.007 18.4754C7.56299 16.8415 1.75297 12.6361 0.575364 8.87727C0.200834 7.81601 0.1024 6.6539 0.289665 5.51701C0.729018 2.85905 2.73011 0.753342 5.27019 0.279136C7.42614 -0.129041 9.56049 0.623685 10.9998 2.25639C12.4403 0.626086 14.5734 -0.125439 16.7306 0.279136C19.2707 0.754543 21.2718 2.85905 21.7099 5.51701C21.8984 6.6575 21.7987 7.82441 21.4218 8.88927C20.2574 12.6301 14.4426 16.8403 11.9973 18.4754C11.6948 18.6771 11.3479 18.778 11.0022 18.778Z" fill="#FF0000"/>
</svg>
