<svg width="29" height="27" viewBox="0 0 29 27" fill="none" xmlns="http://www.w3.org/2000/svg">
<path d="M25.8619 0.657419C25.8619 0.333866 25.6145 0.118164 25.2847 0.118164H21.1623C21.1623 0.980971 21.1623 2.16733 21.1623 2.32911C21.1623 2.73355 20.8325 3.03014 20.4477 3.11103C20.0355 3.19192 19.6507 2.86836 19.5683 2.49088C19.5683 2.41 19.5683 2.41 19.5683 2.32911C19.5683 2.08644 19.5683 1.06186 19.5683 0.118164H9.45447C9.45447 0.980971 9.45447 2.08644 9.45447 2.32911C9.45447 2.73355 9.12468 3.11103 8.73991 3.11103C8.32767 3.11103 7.9429 2.86836 7.86045 2.49088C7.86045 2.41 7.86045 2.41 7.86045 2.32911C7.86045 2.16733 7.86045 0.980971 7.86045 0.118164H3.73799C3.40819 0.118164 3.18832 0.360829 3.18832 0.657419L0.714844 26.4338C0.714844 26.7573 0.962192 27 1.29199 27H27.7582C28.088 27 28.3354 26.7573 28.3354 26.4338L25.8619 0.657419Z" fill="#99907C"/>
</svg>
