<svg width="15" height="9" viewBox="0 0 15 9" fill="none" xmlns="http://www.w3.org/2000/svg">
<path d="M7.67616 2.30068C6.87915 2.30068 7.1265 2.30068 6.87915 2.30068C6.32949 2.30068 5.6699 2.4655 5.12023 2.71273C4.24077 3.12478 3.49873 3.83901 3.03152 4.71806C2.78417 5.21252 2.61927 5.67952 2.53682 6.25639C2.53682 6.50363 2.45437 6.66845 2.45437 6.88821C2.45437 7.21785 2.45437 7.46509 2.45437 7.76726C2.45437 8.17931 2.12457 8.5639 1.73981 8.5639C1.32756 8.5639 0.942801 8.31666 0.860352 7.93208C0.860352 7.84967 0.860352 7.84967 0.860352 7.76726C0.860352 7.43762 0.860352 7.13544 0.860352 6.8058C0.860352 5.92675 1.1077 5.0477 1.41001 4.2236C1.73981 3.59178 2.12457 2.93249 2.70172 2.4655C3.58118 1.66886 4.54309 1.09199 5.75234 0.844753C6.13711 0.762342 6.54936 0.679932 7.01657 0.679932C7.42881 0.679932 7.81358 0.679932 8.22582 0.679932C9.02283 0.679932 9.76488 0.844753 10.397 1.1744C11.1116 1.50404 11.7711 1.88862 12.2384 2.38309C13.1178 3.26214 13.695 4.2236 13.9973 5.43229C14.0797 5.84434 14.1622 6.31134 14.1622 6.72339C14.1622 7.05303 14.1622 7.35521 14.1622 7.60244C14.1622 8.01449 13.8324 8.31666 13.4476 8.39908C13.0629 8.48149 12.6506 8.15184 12.5682 7.76726C12.5682 7.68485 12.5682 7.68485 12.5682 7.60244C12.5682 7.27279 12.5682 6.88821 12.5682 6.55857C12.5682 5.92675 12.4033 5.34988 12.0735 4.80047C11.6612 3.92142 10.9467 3.17973 10.0672 2.79514C9.5725 2.54791 9.10528 2.30068 8.44569 2.30068C8.22583 2.30068 7.67616 2.30068 7.67616 2.30068Z" fill="#99907C"/>
</svg>
