<svg width="15" height="8" viewBox="0 0 15 8" fill="none" xmlns="http://www.w3.org/2000/svg">
<path d="M7.67616 1.5908C6.87915 1.5908 7.1265 1.5908 6.87915 1.5908C6.32949 1.5908 5.6699 1.75258 5.12023 1.99524C4.24077 2.39968 3.49873 3.10071 3.03152 3.96352C2.78417 4.44885 2.61927 4.90722 2.53682 5.47343C2.53682 5.7161 2.45437 5.87787 2.45437 6.09358C2.45437 6.41713 2.45437 6.65979 2.45437 6.95638C2.45437 7.36082 2.12457 7.7383 1.73981 7.7383C1.32756 7.7383 0.942801 7.49564 0.860352 7.11816C0.860352 7.03727 0.860352 7.03727 0.860352 6.95638C0.860352 6.63283 0.860352 6.33624 0.860352 6.01269C0.860352 5.14988 1.1077 4.28707 1.41001 3.47819C1.73981 2.85805 2.12457 2.21094 2.70172 1.75258C3.58118 0.970658 4.54309 0.404441 5.75234 0.161776C6.13711 0.0808882 6.54936 0 7.01657 0C7.42881 0 7.81358 0 8.22582 0C9.02283 0 9.76488 0.161776 10.397 0.485329C11.1116 0.808882 11.7711 1.18636 12.2384 1.67169C13.1178 2.5345 13.695 3.47819 13.9973 4.66455C14.0797 5.06899 14.1622 5.52736 14.1622 5.9318C14.1622 6.25535 14.1622 6.55194 14.1622 6.79461C14.1622 7.19905 13.8324 7.49564 13.4476 7.57653C13.0629 7.65741 12.6506 7.33386 12.5682 6.95638C12.5682 6.8755 12.5682 6.8755 12.5682 6.79461C12.5682 6.47105 12.5682 6.09358 12.5682 5.77002C12.5682 5.14988 12.4033 4.58366 12.0735 4.04441C11.6612 3.1816 10.9467 2.45361 10.0672 2.07613C9.5725 1.83347 9.10528 1.5908 8.44569 1.5908C8.22583 1.5908 7.67616 1.5908 7.67616 1.5908Z" fill="#99907C"/>
</svg>
