<svg width="27" height="27" viewBox="0 0 27 27" fill="none" xmlns="http://www.w3.org/2000/svg">
<path d="M13.7803 1.79492C7.50777 1.79492 2.40527 6.50742 2.40527 12.3005C2.41108 14.0592 2.88683 15.7844 3.78327 17.2974L2.42802 23.3993C2.39063 23.5694 2.4011 23.7465 2.45827 23.9111C2.51545 24.0756 2.61709 24.221 2.75191 24.3313C2.88674 24.4415 3.04948 24.5123 3.22207 24.5356C3.39466 24.559 3.57036 24.5341 3.72965 24.4637L9.34727 21.9677C10.7589 22.524 12.263 22.8087 13.7803 22.807C20.0528 22.807 25.1553 18.0945 25.1553 12.3014C25.1553 6.50823 20.0528 1.79492 13.7803 1.79492ZM17.443 15.0549H10.1175C9.86756 15.0549 9.62783 14.9556 9.45108 14.7789C9.27432 14.6021 9.17502 14.3624 9.17502 14.1124C9.17502 13.8625 9.27432 13.6227 9.45108 13.446C9.62783 13.2692 9.86756 13.1699 10.1175 13.1699H17.443C17.693 13.1699 17.9327 13.2692 18.1095 13.446C18.2862 13.6227 18.3855 13.8625 18.3855 14.1124C18.3855 14.3624 18.2862 14.6021 18.1095 14.7789C17.9327 14.9556 17.693 15.0549 17.443 15.0549ZM17.443 11.2865H10.1175C9.87454 11.2765 9.64486 11.1728 9.47651 10.9973C9.30815 10.8218 9.21415 10.5881 9.21415 10.3449C9.21415 10.1017 9.30815 9.86789 9.47651 9.69239C9.64486 9.51689 9.87454 9.41327 10.1175 9.40317H17.443C17.57 9.3979 17.6967 9.41835 17.8155 9.46329C17.9344 9.50824 18.0429 9.57675 18.1346 9.66472C18.2263 9.75268 18.2993 9.85828 18.3491 9.97516C18.399 10.092 18.4247 10.2178 18.4247 10.3449C18.4247 10.4719 18.399 10.5977 18.3491 10.7146C18.2993 10.8314 18.2263 10.937 18.1346 11.025C18.0429 11.113 17.9344 11.1815 17.8155 11.2264C17.6967 11.2714 17.57 11.2918 17.443 11.2865Z" fill="white"/>
</svg>
