<svg width="29" height="28" viewBox="0 0 29 28" fill="none" xmlns="http://www.w3.org/2000/svg">
<path d="M25.8619 0.801602C25.8619 0.471959 25.6145 0.252197 25.2847 0.252197H21.1623C21.1623 1.13125 21.1623 2.33994 21.1623 2.50476C21.1623 2.91681 20.8325 3.21899 20.4477 3.3014C20.0355 3.38381 19.6507 3.05416 19.5683 2.66958C19.5683 2.58717 19.5683 2.58717 19.5683 2.50476C19.5683 2.25753 19.5683 1.21366 19.5683 0.252197H9.45447C9.45447 1.13125 9.45447 2.25753 9.45447 2.50476C9.45447 2.91681 9.12468 3.3014 8.73991 3.3014C8.32767 3.3014 7.9429 3.05416 7.86045 2.66958C7.86045 2.58717 7.86045 2.58717 7.86045 2.50476C7.86045 2.33994 7.86045 1.13125 7.86045 0.252197H3.73799C3.40819 0.252197 3.18832 0.49943 3.18832 0.801602L0.714844 27.0632C0.714844 27.3928 0.962192 27.64 1.29199 27.64H27.7582C28.088 27.64 28.3354 27.3928 28.3354 27.0632L25.8619 0.801602Z" fill="#99907C"/>
</svg>
