<svg width="15" height="8" viewBox="0 0 15 8" fill="none" xmlns="http://www.w3.org/2000/svg">
<path d="M7.67616 1.62075C6.87915 1.62075 7.1265 1.62075 6.87915 1.62075C6.32949 1.62075 5.6699 1.78557 5.12023 2.0328C4.24077 2.44485 3.49873 3.15908 3.03152 4.03813C2.78417 4.53259 2.61927 4.99959 2.53682 5.57646C2.53682 5.8237 2.45437 5.98852 2.45437 6.20828C2.45437 6.53792 2.45437 6.78515 2.45437 7.08733C2.45437 7.49938 2.12457 7.88397 1.73981 7.88397C1.32756 7.88397 0.942801 7.63673 0.860352 7.25215C0.860352 7.16974 0.860352 7.16974 0.860352 7.08733C0.860352 6.75768 0.860352 6.45551 0.860352 6.12587C0.860352 5.24682 1.1077 4.36777 1.41001 3.54366C1.73981 2.91185 2.12457 2.25256 2.70172 1.78557C3.58118 0.988929 4.54309 0.412054 5.75234 0.164822C6.13711 0.0824108 6.54936 0 7.01657 0C7.42881 0 7.81358 0 8.22582 0C9.02283 0 9.76488 0.164822 10.397 0.494465C11.1116 0.824108 11.7711 1.20869 12.2384 1.70316C13.1178 2.5822 13.695 3.54366 13.9973 4.75235C14.0797 5.16441 14.1622 5.6314 14.1622 6.04346C14.1622 6.3731 14.1622 6.67527 14.1622 6.92251C14.1622 7.33456 13.8324 7.63673 13.4476 7.71914C13.0629 7.80155 12.6506 7.47191 12.5682 7.08733C12.5682 7.00492 12.5682 7.00492 12.5682 6.92251C12.5682 6.59286 12.5682 6.20828 12.5682 5.87864C12.5682 5.24682 12.4033 4.66994 12.0735 4.12054C11.6612 3.24149 10.9467 2.49979 10.0672 2.11521C9.5725 1.86798 9.10528 1.62075 8.44569 1.62075C8.22583 1.62075 7.67616 1.62075 7.67616 1.62075Z" fill="#99907C"/>
</svg>
