<svg width="29" height="29" viewBox="0 0 29 29" fill="none" xmlns="http://www.w3.org/2000/svg">
<path d="M25.8614 1.48153C25.8614 1.15189 25.6141 0.932129 25.2843 0.932129H21.1618C21.1618 1.81118 21.1618 3.01987 21.1618 3.18469C21.1618 3.59674 20.832 3.89892 20.4472 3.98133C20.035 4.06374 19.6502 3.7341 19.5678 3.34951C19.5678 3.2671 19.5678 3.2671 19.5678 3.18469C19.5678 2.93746 19.5678 1.89359 19.5678 0.932129H9.45398C9.45398 1.81118 9.45398 2.93746 9.45398 3.18469C9.45398 3.59674 9.12419 3.98133 8.73942 3.98133C8.32718 3.98133 7.94241 3.7341 7.85996 3.34951C7.85996 3.2671 7.85996 3.2671 7.85996 3.18469C7.85996 3.01987 7.85996 1.81118 7.85996 0.932129H3.7375C3.4077 0.932129 3.18783 1.17936 3.18783 1.48153L0.714355 27.7431C0.714355 28.0727 0.961703 28.32 1.2915 28.32H27.7577C28.0875 28.32 28.3349 28.0727 28.3349 27.7431L25.8614 1.48153Z" fill="#99907C"/>
</svg>
