<svg width="29" height="27" viewBox="0 0 29 27" fill="none" xmlns="http://www.w3.org/2000/svg">
<path d="M25.8614 0.657419C25.8614 0.333866 25.6141 0.118164 25.2843 0.118164H21.1618C21.1618 0.980971 21.1618 2.16733 21.1618 2.32911C21.1618 2.73355 20.832 3.03014 20.4472 3.11103C20.035 3.19192 19.6502 2.86836 19.5678 2.49088C19.5678 2.41 19.5678 2.41 19.5678 2.32911C19.5678 2.08644 19.5678 1.06186 19.5678 0.118164H9.45398C9.45398 0.980971 9.45398 2.08644 9.45398 2.32911C9.45398 2.73355 9.12419 3.11103 8.73942 3.11103C8.32718 3.11103 7.94241 2.86836 7.85996 2.49088C7.85996 2.41 7.85996 2.41 7.85996 2.32911C7.85996 2.16733 7.85996 0.980971 7.85996 0.118164H3.7375C3.4077 0.118164 3.18783 0.360829 3.18783 0.657419L0.714355 26.4338C0.714355 26.7573 0.961703 27 1.2915 27H27.7577C28.0875 27 28.3349 26.7573 28.3349 26.4338L25.8614 0.657419Z" fill="#99907C"/>
</svg>
